<svg width="20" height="20" viewBox="0 0 20 20" fill="none" xmlns="http://www.w3.org/2000/svg">
<g id="icon-delete-20">
<path id="Vector 12 (Stroke)" fill-rule="evenodd" clip-rule="evenodd" d="M3.83512 3.83517C4.01818 3.65211 4.31497 3.65211 4.49803 3.83517L16.1647 15.5018C16.3478 15.6849 16.3478 15.9817 16.1647 16.1647C15.9816 16.3478 15.6848 16.3478 15.5018 16.1647L3.83512 4.49808C3.65206 4.31502 3.65206 4.01823 3.83512 3.83517Z" fill="#1C1C1C"/>
<path id="Vector 13 (Stroke)" fill-rule="evenodd" clip-rule="evenodd" d="M16.1647 3.83524C16.3478 4.0183 16.3478 4.31509 16.1647 4.49815L4.49804 16.1648C4.31499 16.3479 4.01819 16.3479 3.83513 16.1648C3.65207 15.9818 3.65207 15.685 3.83513 15.5019L15.5018 3.83524C15.6849 3.65218 15.9817 3.65218 16.1647 3.83524Z" fill="#1C1C1C"/>
</g>
</svg>
