<svg width="26" height="26" viewBox="0 0 26 26" fill="none" xmlns="http://www.w3.org/2000/svg">
<g id="icon-bookmark-26">
<path id="Rectangle 1000 (Stroke)" fill-rule="evenodd" clip-rule="evenodd" d="M4.875 6.15868C4.875 4.55226 6.22786 3.25 7.89669 3.25H18.1033C19.7721 3.25 21.125 4.55226 21.125 6.15868V21.779C21.125 22.5235 20.2895 22.9902 19.618 22.6208L13.0999 19.0355C13.038 19.0014 12.962 19.0014 12.9001 19.0355L6.38196 22.6208C5.71048 22.9902 4.875 22.5235 4.875 21.779V6.15868ZM7.89669 4.41347C6.89539 4.41347 6.08368 5.19483 6.08368 6.15868V21.4449L12.3004 18.0253C12.7339 17.7869 13.2661 17.7869 13.6996 18.0253L19.9163 21.4449V6.15868C19.9163 5.19483 19.1046 4.41347 18.1033 4.41347H7.89669Z" fill="#1C1C1C"/>
</g>
</svg>
