<svg width="20" height="20" viewBox="0 0 20 20" fill="none" xmlns="http://www.w3.org/2000/svg">
<g id="icon-bookmark-20">
<path id="Rectangle 1000 (Stroke)" fill-rule="evenodd" clip-rule="evenodd" d="M3.75 4.73745C3.75 3.50174 4.79066 2.5 6.07438 2.5H13.9256C15.2093 2.5 16.25 3.50174 16.25 4.73745V16.7531C16.25 17.3257 15.6073 17.6847 15.0908 17.4006L10.0769 14.6427C10.0292 14.6165 9.97076 14.6165 9.92312 14.6427L4.9092 17.4006C4.39268 17.6847 3.75 17.3257 3.75 16.7531V4.73745Z" fill="black" fill-opacity="0.16"/>
<path id="Rectangle 1000 (Stroke)_2" fill-rule="evenodd" clip-rule="evenodd" d="M3.75 4.73745C3.75 3.50174 4.79066 2.5 6.07438 2.5H13.9256C15.2093 2.5 16.25 3.50174 16.25 4.73745V16.7531C16.25 17.3257 15.6073 17.6847 15.0908 17.4006L10.0769 14.6427C10.0292 14.6165 9.97076 14.6165 9.92312 14.6427L4.9092 17.4006C4.39268 17.6847 3.75 17.3257 3.75 16.7531V4.73745ZM6.07438 3.39498C5.30415 3.39498 4.67975 3.99602 4.67975 4.73745V16.496L9.46183 13.8656C9.79531 13.6822 10.2047 13.6822 10.5382 13.8656L15.3202 16.496V4.73745C15.3202 3.99602 14.6959 3.39498 13.9256 3.39498H6.07438Z" fill="white"/>
</g>
</svg>
