<svg width="24" height="24" viewBox="0 0 24 24" fill="none" xmlns="http://www.w3.org/2000/svg">
<g id="icon-fiter-24">
<path id="Vector" d="M19.1985 4.1591L13.5426 11.4057C13.3647 11.5428 13.2501 11.758 13.2501 12V19.88C13.2501 19.9131 13.2523 19.9463 13.2567 19.9791C13.2676 20.061 13.235 20.1283 13.2044 20.1561C13.1959 20.164 13.1875 20.172 13.1793 20.1802C13.1564 20.2031 13.1293 20.2213 13.0994 20.2337C13.0695 20.2461 13.0375 20.2524 13.0051 20.2524C12.9728 20.2524 12.9408 20.2461 12.9109 20.2337C12.881 20.2213 12.8539 20.2031 12.831 20.1802L12.8305 20.1797L10.8205 18.1697L10.8205 18.1696L10.8144 18.1637C10.7881 18.1379 10.768 18.1064 10.7559 18.0716C10.7437 18.0368 10.7398 17.9997 10.7443 17.9631C10.7482 17.9322 10.7501 17.9011 10.7501 17.87V12C10.7501 11.758 10.6355 11.5428 10.4577 11.4057L4.8018 4.1591C4.80175 4.15904 4.8017 4.15898 4.80165 4.15891C4.76116 4.10683 4.7429 4.04084 4.75085 3.97534C4.7584 3.91316 4.78899 3.85621 4.83637 3.81563C4.91712 3.75881 4.97106 3.75 5.00013 3.75H19.0001C19.0292 3.75 19.0831 3.75881 19.1639 3.81562C19.2113 3.85621 19.2419 3.91316 19.2494 3.97534C19.2574 4.04079 19.2391 4.10673 19.1987 4.1588C19.1986 4.1589 19.1985 4.159 19.1985 4.1591Z" stroke="#1C1C1C" stroke-width="1.5" stroke-linejoin="round"/>
</g>
</svg>
