<svg width="26" height="26" viewBox="0 0 26 26" fill="none" xmlns="http://www.w3.org/2000/svg">
<g id="icon-mypage-26">
<path id="Union (Stroke)" fill-rule="evenodd" clip-rule="evenodd" d="M13 3.85938C10.345 3.85938 8.19274 6.01167 8.19274 8.66667C8.19274 11.3217 10.345 13.474 13 13.474C15.655 13.474 17.8073 11.3217 17.8073 8.66667C17.8073 6.01167 15.655 3.85938 13 3.85938ZM16.0269 13.8785C17.8205 12.8346 19.0261 10.8914 19.0261 8.66667C19.0261 5.33858 16.3281 2.64062 13 2.64062C9.67194 2.64062 6.97399 5.33858 6.97399 8.66667C6.97399 10.8914 8.1796 12.8346 9.97314 13.8785C8.37969 14.3141 6.90933 15.0921 5.7009 16.1663C4.44615 17.2816 3.53835 18.6594 3.0508 20.1647C2.76944 21.0333 3.01802 21.8564 3.54696 22.4405C4.06576 23.0134 4.85063 23.3594 5.68753 23.3594L20.3125 23.3594C21.1494 23.3594 21.9343 23.0134 22.4531 22.4405C22.982 21.8564 23.2306 21.0333 22.9493 20.1647C22.4617 18.6594 21.5539 17.2816 20.2992 16.1663C19.0907 15.0921 17.6204 14.3141 16.0269 13.8785ZM13 14.6927C10.5541 14.6927 8.22077 15.557 6.51059 17.0772C5.41048 18.0551 4.62791 19.2507 4.21025 20.5402C4.0768 20.9522 4.18362 21.3279 4.45034 21.6224C4.7272 21.9282 5.17824 22.1406 5.68753 22.1406L20.3125 22.1406C20.8218 22.1406 21.2729 21.9282 21.5497 21.6224C21.8164 21.3279 21.9233 20.9522 21.7898 20.5402C21.3722 19.2507 20.5896 18.0551 19.4895 17.0772C17.7793 15.557 15.4459 14.6927 13 14.6927Z" fill="#1C1C1C"/>
</g>
</svg>
