<svg width="26" height="26" viewBox="0 0 26 26" fill="none" xmlns="http://www.w3.org/2000/svg">
<g id="icon-mypage-26">
<path id="Union (Stroke)" fill-rule="evenodd" clip-rule="evenodd" d="M16.0269 13.8785C17.8205 12.8346 19.0261 10.8914 19.0261 8.66667C19.0261 5.33858 16.3281 2.64062 13 2.64062C9.67194 2.64062 6.97399 5.33858 6.97399 8.66667C6.97399 10.8914 8.1796 12.8346 9.97314 13.8785C8.37969 14.3141 6.90933 15.0921 5.7009 16.1663C4.44615 17.2816 3.53835 18.6594 3.0508 20.1647C2.76944 21.0333 3.01802 21.8564 3.54696 22.4405C4.06576 23.0134 4.85063 23.3594 5.68753 23.3594L20.3125 23.3594C21.1494 23.3594 21.9343 23.0134 22.4531 22.4405C22.982 21.8564 23.2306 21.0333 22.9493 20.1647C22.4617 18.6594 21.5539 17.2816 20.2992 16.1663C19.0907 15.0921 17.6204 14.3141 16.0269 13.8785Z" fill="#FF6B00"/>
</g>
</svg>
