<svg width="32" height="32" viewBox="0 0 32 32" fill="none" xmlns="http://www.w3.org/2000/svg">
<g id="icon-delete-32">
<path id="Vector 12 (Stroke)" fill-rule="evenodd" clip-rule="evenodd" d="M6.13629 6.13642C6.42918 5.84352 6.90405 5.84352 7.19695 6.13642L25.8636 24.8031C26.1565 25.096 26.1565 25.5709 25.8636 25.8637C25.5707 26.1566 25.0958 26.1566 24.803 25.8637L6.13629 7.19708C5.84339 6.90418 5.84339 6.42931 6.13629 6.13642Z" fill="#1C1C1C"/>
<path id="Vector 13 (Stroke)" fill-rule="evenodd" clip-rule="evenodd" d="M25.8636 6.13629C26.1565 6.42918 26.1565 6.90405 25.8636 7.19695L7.19692 25.8636C6.90403 26.1565 6.42915 26.1565 6.13626 25.8636C5.84337 25.5707 5.84337 25.0959 6.13626 24.803L24.8029 6.13629C25.0958 5.84339 25.5707 5.84339 25.8636 6.13629Z" fill="#1C1C1C"/>
</g>
</svg>
