<svg width="16" height="16" viewBox="0 0 16 16" fill="none" xmlns="http://www.w3.org/2000/svg">
<g id="icon-reset-16">
<path id="Ellipse 340 (Stroke)" fill-rule="evenodd" clip-rule="evenodd" d="M13 1.125C13.2071 1.125 13.375 1.29289 13.375 1.5V5.70551C13.375 5.91262 13.2071 6.08051 13 6.08051H8.75C8.54289 6.08051 8.375 5.91262 8.375 5.70551C8.375 5.49841 8.54289 5.33051 8.75 5.33051H12.3758C11.4751 3.85733 9.85197 2.875 8 2.875C5.16954 2.875 2.875 5.16954 2.875 8C2.875 10.8305 5.16954 13.125 8 13.125C10.5118 13.125 12.6023 11.3176 13.0405 8.93225C13.0779 8.72855 13.2734 8.59375 13.4771 8.63117C13.6808 8.66859 13.8156 8.86405 13.7781 9.06775C13.2758 11.8027 10.8803 13.875 8 13.875C4.75533 13.875 2.125 11.2447 2.125 8C2.125 4.75533 4.75533 2.125 8 2.125C9.87803 2.125 11.5498 3.00619 12.625 4.37685V1.5C12.625 1.29289 12.7929 1.125 13 1.125Z" fill="#1C1C1C"/>
</g>
</svg>
