<svg width="20" height="20" viewBox="0 0 20 20" fill="none" xmlns="http://www.w3.org/2000/svg">
<g id="icon-&#236;&#152;&#129;&#237;&#153;&#148;&#235;&#182;&#132;&#236;&#156;&#132;&#234;&#184;&#176;">
<path id="Vector" d="M18.75 6.2625V3.6375C18.75 3.35625 18.5188 3.125 18.2375 3.125H1.7625C1.48125 3.125 1.25 3.35625 1.25 3.6375V6.2625H3.5875C4.25 6.2625 4.7875 6.8 4.7875 7.4625V12.5C4.7875 13.1625 4.25 13.7 3.5875 13.7H1.25V16.325C1.25 16.6063 1.48125 16.8375 1.7625 16.8375H18.2375C18.5188 16.8375 18.75 16.6063 18.75 16.325V13.7H16.4125C16.0942 13.7 15.789 13.5736 15.564 13.3485C15.3389 13.1235 15.2125 12.8183 15.2125 12.5V7.4625C15.2125 6.8 15.75 6.2625 16.4125 6.2625H18.75ZM12.5688 13.7H7.43125C7.11299 13.7 6.80777 13.5736 6.58272 13.3485C6.35768 13.1235 6.23125 12.8183 6.23125 12.5V7.4625C6.23125 6.8 6.76875 6.2625 7.43125 6.2625H12.5688C13.2313 6.2625 13.7688 6.8 13.7688 7.4625V12.5C13.7688 13.1625 13.2313 13.7 12.5688 13.7ZM3.60625 14.6187C3.71875 14.6187 3.80625 14.7062 3.80625 14.8187V15.6813C3.80625 15.7938 3.71875 15.8812 3.60625 15.8812H2.74375C2.63125 15.8812 2.54375 15.7938 2.54375 15.6813V14.8187C2.54375 14.7062 2.63125 14.6187 2.74375 14.6187H3.60625ZM7.01875 14.6187C7.13125 14.6187 7.21875 14.7062 7.21875 14.8187V15.6813C7.21875 15.7938 7.13125 15.8812 7.01875 15.8812H6.15625C6.04375 15.8812 5.95625 15.7938 5.95625 15.6813V14.8187C5.95625 14.7062 6.04375 14.6187 6.15625 14.6187H7.01875ZM9.56875 14.6187H10.4313C10.5438 14.6187 10.6313 14.7062 10.6313 14.8187V15.6813C10.6313 15.7938 10.5438 15.8812 10.4313 15.8812H9.56875C9.45625 15.8812 9.36875 15.7938 9.36875 15.6813V14.8187C9.36875 14.7062 9.45625 14.6187 9.56875 14.6187ZM13.8437 14.6187C13.95 14.6187 14.0437 14.7062 14.0437 14.8187V15.6813C14.0437 15.7938 13.9562 15.8812 13.8437 15.8812H12.9813C12.8688 15.8812 12.7813 15.7938 12.7813 15.6813V14.8187C12.7813 14.7062 12.8688 14.6187 12.9813 14.6187H13.8437ZM16.3937 14.6187H17.2563C17.3625 14.6187 17.4563 14.7062 17.4563 14.8187V15.6813C17.4563 15.7938 17.3688 15.8812 17.2563 15.8812H16.3937C16.2812 15.8812 16.1937 15.7938 16.1937 15.6813V14.8187C16.1937 14.7062 16.2812 14.6187 16.3937 14.6187ZM2.74375 4.05H3.60625C3.71875 4.05 3.80625 4.14375 3.80625 4.25V5.1125C3.80625 5.225 3.71875 5.3125 3.60625 5.3125H2.74375C2.63125 5.3125 2.54375 5.225 2.54375 5.1125V4.25C2.54375 4.1375 2.63125 4.05 2.74375 4.05ZM6.15625 4.05H7.01875C7.13125 4.05 7.21875 4.14375 7.21875 4.25V5.1125C7.21875 5.225 7.13125 5.3125 7.01875 5.3125H6.15625C6.04375 5.3125 5.95625 5.225 5.95625 5.1125V4.25C5.95625 4.1375 6.04375 4.05 6.15625 4.05ZM10.4313 4.05C10.5438 4.05 10.6313 4.14375 10.6313 4.25V5.1125C10.6313 5.225 10.5438 5.3125 10.4313 5.3125H9.56875C9.45625 5.3125 9.36875 5.225 9.36875 5.1125V4.25C9.36875 4.1375 9.45625 4.05 9.56875 4.05H10.4313ZM12.9813 4.05H13.8437C13.95 4.05 14.0437 4.14375 14.0437 4.25V5.1125C14.0437 5.225 13.9562 5.3125 13.8437 5.3125H12.9813C12.8688 5.3125 12.7813 5.225 12.7813 5.1125V4.25C12.7813 4.1375 12.8688 4.05 12.9813 4.05ZM17.2563 4.05C17.3625 4.05 17.4563 4.14375 17.4563 4.25V5.1125C17.4563 5.225 17.3688 5.3125 17.2563 5.3125H16.3937C16.2812 5.3125 16.1937 5.225 16.1937 5.1125V4.25C16.1937 4.1375 16.2812 4.05 16.3937 4.05H17.2563Z" fill="#1C1C1C"/>
</g>
</svg>
