<svg width="26" height="26" viewBox="0 0 26 26" fill="none" xmlns="http://www.w3.org/2000/svg">
<g id="icon-thema-26">
<path id="Ellipse 338 (Stroke)" fill-rule="evenodd" clip-rule="evenodd" d="M13 3.18237C13.3365 3.18237 13.6094 3.4552 13.6094 3.79175V6.50008C13.6094 6.83663 13.3365 7.10946 13 7.10946C12.6635 7.10946 12.3906 6.83663 12.3906 6.50008V3.79175C12.3906 3.4552 12.6635 3.18237 13 3.18237ZM5.05104 4.92925C5.32028 4.72732 5.70224 4.78188 5.90417 5.05112L7.52917 7.21779C7.7311 7.48703 7.67653 7.86899 7.40729 8.07091C7.13805 8.27284 6.7561 8.21828 6.55417 7.94904L4.92917 5.78237C4.72724 5.51313 4.7818 5.13118 5.05104 4.92925ZM20.949 4.92925C21.2182 5.13118 21.2728 5.51313 21.0708 5.78237L19.4458 7.94904C19.2439 8.21828 18.8619 8.27284 18.5927 8.07091C18.3235 7.86899 18.2689 7.48703 18.4708 7.21779L20.0958 5.05112C20.2978 4.78188 20.6797 4.72732 20.949 4.92925ZM4.74103 14.1049C4.16611 14.8105 3.85938 15.5338 3.85938 16.2501C3.85938 16.9663 4.16611 17.6896 4.74103 18.3953C5.31644 19.1015 6.13629 19.7583 7.08903 20.3218C9.00517 21.4551 11.3366 22.1407 13 22.1407C14.6634 22.1407 16.9948 21.4551 18.911 20.3218C19.8637 19.7583 20.6836 19.1015 21.259 18.3953C21.8339 17.6896 22.1406 16.9663 22.1406 16.2501C22.1406 15.5338 21.8339 14.8105 21.259 14.1049C20.6836 13.3987 19.8637 12.7419 18.911 12.1784C16.9948 11.0451 14.6634 10.3595 13 10.3595C11.3366 10.3595 9.00517 11.0451 7.08903 12.1784C6.13629 12.7419 5.31644 13.3987 4.74103 14.1049ZM6.46859 11.1294C8.52998 9.91016 11.0736 9.14071 13 9.14071C14.9264 9.14071 17.47 9.91016 19.5314 11.1294C20.5674 11.7422 21.512 12.486 22.2038 13.3351C22.8961 14.1847 23.3594 15.1714 23.3594 16.2501C23.3594 17.3288 22.8961 18.3154 22.2038 19.1651C21.512 20.0142 20.5674 20.758 19.5314 21.3708C17.47 22.59 14.9264 23.3595 13 23.3595C11.0736 23.3595 8.52998 22.59 6.46859 21.3708C5.43255 20.758 4.488 20.0142 3.7962 19.1651C3.10391 18.3154 2.64062 17.3288 2.64062 16.2501C2.64062 15.1714 3.10391 14.1847 3.7962 13.3351C4.488 12.486 5.43255 11.7422 6.46859 11.1294Z" fill="#FF6B00"/>
<path id="Ellipse 339 (Stroke)" fill-rule="evenodd" clip-rule="evenodd" d="M9.14062 16.25C9.14062 14.1185 10.8685 12.3906 13 12.3906C15.1315 12.3906 16.8594 14.1185 16.8594 16.25C16.8594 18.3815 15.1315 20.1094 13 20.1094C10.8685 20.1094 9.14062 18.3815 9.14062 16.25Z" fill="#FF6B00"/>
</g>
</svg>
