<svg width="24" height="24" viewBox="0 0 24 24" fill="none" xmlns="http://www.w3.org/2000/svg">
<g id="icon-delete-24">
<path id="Vector 12 (Stroke)" fill-rule="evenodd" clip-rule="evenodd" d="M4.60234 4.60225C4.82201 4.38258 5.17816 4.38258 5.39783 4.60225L19.3978 18.6023C19.6175 18.8219 19.6175 19.1781 19.3978 19.3977C19.1782 19.6174 18.822 19.6174 18.6023 19.3977L4.60234 5.39775C4.38267 5.17808 4.38267 4.82192 4.60234 4.60225Z" fill="#1C1C1C"/>
<path id="Vector 13 (Stroke)" fill-rule="evenodd" clip-rule="evenodd" d="M19.3977 4.60234C19.6174 4.82201 19.6174 5.17816 19.3977 5.39783L5.39775 19.3978C5.17808 19.6175 4.82193 19.6175 4.60226 19.3978C4.38259 19.1782 4.38259 18.822 4.60226 18.6023L18.6023 4.60234C18.8219 4.38267 19.1781 4.38267 19.3977 4.60234Z" fill="#1C1C1C"/>
</g>
</svg>
