<svg width="28" height="28" viewBox="0 0 28 28" fill="none" xmlns="http://www.w3.org/2000/svg">
<g id="icon-bookmark-28">
<path id="Rectangle 1000 (Stroke)" fill-rule="evenodd" clip-rule="evenodd" d="M5.25 6.63243C5.25 4.90243 6.70692 3.5 8.50413 3.5H19.4959C21.2931 3.5 22.75 4.90244 22.75 6.63243V23.4543C22.75 24.256 21.8503 24.7586 21.1271 24.3609L14.1076 20.4998C14.0409 20.4631 13.9591 20.4631 13.8924 20.4998L6.87288 24.3609C6.14975 24.7586 5.25 24.256 5.25 23.4543V6.63243ZM8.50413 4.75297C7.42581 4.75297 6.55165 5.59443 6.55165 6.63243V23.0945L13.2466 19.4119C13.7134 19.1551 14.2866 19.1551 14.7534 19.4119L21.4483 23.0945V6.63243C21.4483 5.59443 20.5742 4.75297 19.4959 4.75297H8.50413Z" fill="#1C1C1C"/>
</g>
</svg>
