<svg width="26" height="26" viewBox="0 0 26 26" fill="none" xmlns="http://www.w3.org/2000/svg">
<path fill-rule="evenodd" clip-rule="evenodd" d="M14.7606 3.8417L21.6429 9.0851C22.3414 9.61727 22.75 10.4355 22.75 11.3024V20.6901C22.75 21.8278 21.8085 22.75 20.6471 22.75H16.0588C15.7421 22.75 15.4853 22.4985 15.4853 22.1882V15.6964C15.4853 15.1793 15.0573 14.7601 14.5294 14.7601H11.4706C10.9427 14.7601 10.5147 15.1793 10.5147 15.6964V22.1882C10.5147 22.4985 10.2579 22.75 9.94118 22.75H5.35294C4.19152 22.75 3.25 21.8278 3.25 20.6901V11.3024C3.25 10.4355 3.65856 9.61727 4.35708 9.0851L11.2394 3.8417C12.275 3.05277 13.725 3.05277 14.7606 3.8417Z" fill="#FF6B00"/>
</svg>
