<svg width="28" height="28" viewBox="0 0 28 28" fill="none" xmlns="http://www.w3.org/2000/svg">
<path fill-rule="evenodd" clip-rule="evenodd" d="M19.25 4.15625C18.0016 4.15625 16.9896 5.16827 16.9896 6.41667C16.9896 6.87219 17.1236 7.29441 17.3542 7.64842C17.7586 8.26908 18.4568 8.67708 19.25 8.67708C20.4984 8.67708 21.5104 7.66506 21.5104 6.41667C21.5104 5.16827 20.4984 4.15625 19.25 4.15625ZM15.6771 6.41667C15.6771 4.4434 17.2767 2.84375 19.25 2.84375C21.2232 2.84375 22.8229 4.4434 22.8229 6.41667C22.8229 8.38993 21.2232 9.98958 19.25 9.98958C18.2318 9.98958 17.3134 9.56333 16.6632 8.88118L10.4205 12.9398L9.70508 11.8394L15.9471 7.78124C15.7731 7.36042 15.6771 6.89931 15.6771 6.41667ZM16.5104 20.5682L9.70578 16.1566L10.4198 15.0553L17.2244 19.4669L16.5104 20.5682Z" fill="#1C1C1C"/>
<path fill-rule="evenodd" clip-rule="evenodd" d="M7.58317 11.7396C6.33478 11.7396 5.32275 12.7516 5.32275 14C5.32275 15.2484 6.33478 16.2604 7.58317 16.2604C8.83156 16.2604 9.84359 15.2484 9.84359 14C9.84359 12.7516 8.83156 11.7396 7.58317 11.7396ZM4.01025 14C4.01025 12.0267 5.6099 10.4271 7.58317 10.4271C9.55644 10.4271 11.1561 12.0267 11.1561 14C11.1561 15.9732 9.55644 17.5729 7.58317 17.5729C5.6099 17.5729 4.01025 15.9732 4.01025 14Z" fill="#1C1C1C"/>
<path fill-rule="evenodd" clip-rule="evenodd" d="M19.2502 19.3229C18.0018 19.3229 16.9897 20.335 16.9897 21.5834C16.9897 22.8317 18.0018 23.8438 19.2502 23.8438C20.4986 23.8438 21.5106 22.8317 21.5106 21.5834C21.5106 20.335 20.4986 19.3229 19.2502 19.3229ZM15.6772 21.5834C15.6772 19.6101 17.2769 18.0104 19.2502 18.0104C21.2234 18.0104 22.8231 19.6101 22.8231 21.5834C22.8231 23.5566 21.2234 25.1563 19.2502 25.1563C17.2769 25.1563 15.6772 23.5566 15.6772 21.5834Z" fill="#1C1C1C"/>
</svg>
