<svg width="26" height="26" viewBox="0 0 26 26" fill="none" xmlns="http://www.w3.org/2000/svg">
<path fill-rule="evenodd" clip-rule="evenodd" d="M13 3.18228C13.3365 3.18228 13.6094 3.45511 13.6094 3.79166V6.49999C13.6094 6.83654 13.3365 7.10936 13 7.10936C12.6635 7.10936 12.3906 6.83654 12.3906 6.49999V3.79166C12.3906 3.45511 12.6635 3.18228 13 3.18228ZM5.05104 4.92916C5.32028 4.72723 5.70224 4.78179 5.90417 5.05103L7.52917 7.2177C7.7311 7.48694 7.67653 7.86889 7.40729 8.07082C7.13805 8.27275 6.7561 8.21819 6.55417 7.94895L4.92917 5.78228C4.72724 5.51304 4.7818 5.13109 5.05104 4.92916ZM20.949 4.92916C21.2182 5.13109 21.2728 5.51304 21.0708 5.78228L19.4458 7.94895C19.2439 8.21819 18.8619 8.27275 18.5927 8.07082C18.3235 7.86889 18.2689 7.48694 18.4708 7.2177L20.0958 5.05103C20.2978 4.78179 20.6797 4.72723 20.949 4.92916ZM4.74103 14.1048C4.16611 14.8104 3.85938 15.5338 3.85938 16.25C3.85938 16.9662 4.16611 17.6895 4.74103 18.3952C5.31644 19.1014 6.13629 19.7582 7.08903 20.3217C9.00517 21.455 11.3366 22.1406 13 22.1406C14.6634 22.1406 16.9948 21.455 18.911 20.3217C19.8637 19.7582 20.6836 19.1014 21.259 18.3952C21.8339 17.6895 22.1406 16.9662 22.1406 16.25C22.1406 15.5338 21.8339 14.8104 21.259 14.1048C20.6836 13.3986 19.8637 12.7418 18.911 12.1783C16.9948 11.045 14.6634 10.3594 13 10.3594C11.3366 10.3594 9.00517 11.045 7.08903 12.1783C6.13629 12.7418 5.31644 13.3986 4.74103 14.1048ZM6.46859 11.1293C8.52998 9.91007 11.0736 9.14061 13 9.14061C14.9264 9.14061 17.47 9.91007 19.5314 11.1293C20.5674 11.7421 21.512 12.4859 22.2038 13.335C22.8961 14.1847 23.3594 15.1713 23.3594 16.25C23.3594 17.3287 22.8961 18.3153 22.2038 19.165C21.512 20.0141 20.5674 20.7579 19.5314 21.3707C17.47 22.5899 14.9264 23.3594 13 23.3594C11.0736 23.3594 8.52998 22.5899 6.46859 21.3707C5.43255 20.7579 4.488 20.0141 3.7962 19.165C3.10391 18.3153 2.64062 17.3287 2.64062 16.25C2.64062 15.1713 3.10391 14.1847 3.7962 13.335C4.488 12.4859 5.43255 11.7421 6.46859 11.1293Z" fill="#FF6B00"/>
<path fill-rule="evenodd" clip-rule="evenodd" d="M9.14062 16.25C9.14062 14.1185 10.8685 12.3906 13 12.3906C15.1315 12.3906 16.8594 14.1185 16.8594 16.25C16.8594 18.3815 15.1315 20.1094 13 20.1094C10.8685 20.1094 9.14062 18.3815 9.14062 16.25Z" fill="#FF6B00"/>
</svg>
