<svg width="88" height="31" viewBox="0 0 88 31" fill="none" xmlns="http://www.w3.org/2000/svg">
<path fill-rule="evenodd" clip-rule="evenodd" d="M3.47363 2.87036H28.0789V5.45369H20.5526V28.1296H11.2894V5.45369H3.47363V2.87036ZM14.1842 5.45369V6.31481H17.6578V5.45369H14.1842ZM39.3684 2.87036H49.7894V5.45369H39.3684V25.5463H49.7894V28.1296H39.3684L29.5263 28.1296V2.87036H39.3684ZM71.7894 2.87036H74.1052L66.8684 28.1296H59.921L51.2368 2.87036H60.2105L66.5989 21.1703L71.7894 2.87036ZM46.0263 14.3518H40.8157V16.3611H46.0263V14.3518ZM75.2631 2.87036H84.5263V28.1296L83.3684 28.1296V27.2685H82.5V28.1296H77.2894V27.2685H76.421V28.1296L75.2631 28.1296V2.87036ZM78.1578 16.0741H81.6315V18.3704H78.1578V16.0741ZM81.6315 20.0926H78.1578V22.3889H81.6315V20.0926ZM78.1578 24.1111H81.6315V26.4074H78.1578V24.1111ZM81.6315 12.0555H78.1578V14.3518H81.6315V12.0555ZM78.1578 8.03703H81.6315V10.3333H78.1578V8.03703ZM81.6315 4.01851H78.1578V6.31481H81.6315V4.01851ZM76.421 15.213H77.2894V16.0741H76.421V15.213ZM77.2894 16.9352H76.421V17.7963H77.2894V16.9352ZM76.421 18.6574H77.2894V19.5185H76.421V18.6574ZM77.2894 20.3796H76.421V21.2407H77.2894V20.3796ZM76.421 22.1018H77.2894V22.963H76.421V22.1018ZM77.2894 23.8241H76.421V24.6852H77.2894V23.8241ZM76.421 25.5463H77.2894V26.4074H76.421V25.5463ZM76.421 13.4907H77.2894V14.3518H76.421V13.4907ZM77.2894 11.7685H76.421V12.6296H77.2894V11.7685ZM76.421 10.0463H77.2894V10.9074H76.421V10.0463ZM77.2894 8.32407H76.421V9.18518H77.2894V8.32407ZM76.421 6.60184H77.2894V7.46295H76.421V6.60184ZM77.2894 4.87962H76.421V5.74073H77.2894V4.87962ZM76.421 3.1574H77.2894V4.01851H76.421V3.1574ZM83.3684 15.213H82.5V16.0741H83.3684V15.213ZM82.5 16.9352H83.3684V17.7963H82.5V16.9352ZM83.3684 18.6574H82.5V19.5185H83.3684V18.6574ZM82.5 20.3796H83.3684V21.2407H82.5V20.3796ZM83.3684 22.1018H82.5V22.963H83.3684V22.1018ZM82.5 23.8241H83.3684V24.6852H82.5V23.8241ZM83.3684 25.5463H82.5V26.4074H83.3684V25.5463ZM83.3684 13.4907H82.5V14.3518H83.3684V13.4907ZM82.5 11.7685H83.3684V12.6296H82.5V11.7685ZM83.3684 10.0463H82.5V10.9074H83.3684V10.0463ZM82.5 8.32407H83.3684V9.18518H82.5V8.32407ZM83.3684 6.60184H82.5V7.46295H83.3684V6.60184ZM82.5 4.87962H83.3684V5.74073H82.5V4.87962ZM83.3684 3.1574H82.5V4.01851H83.3684V3.1574ZM17.6578 16.0741H14.1842V18.3704H17.6578V16.0741ZM14.1842 20.0926H17.6578V22.3889H14.1842V20.0926ZM17.6578 24.1111H14.1842V26.4074H17.6578V24.1111ZM14.1842 12.0555H17.6578V14.3518H14.1842V12.0555ZM17.6578 8.03703H14.1842V10.3333H17.6578V8.03703ZM13.3157 16.3611H12.4473V17.2222H13.3157V16.3611ZM12.4473 18.0833H13.3157V18.9444H12.4473V18.0833ZM13.3157 19.8055H12.4473V20.6667H13.3157V19.8055ZM12.4473 21.5278H13.3157V22.3889H12.4473V21.5278ZM13.3157 23.25H12.4473V24.1111H13.3157V23.25ZM12.4473 24.9722H13.3157V25.8333H12.4473V24.9722ZM13.3157 26.6944H12.4473V27.5555H13.3157V26.6944ZM12.4473 14.6389H13.3157V15.5H12.4473V14.6389ZM13.3157 12.9167H12.4473V13.7778H13.3157V12.9167ZM12.4473 11.1944H13.3157V12.0555H12.4473V11.1944ZM13.3157 9.47221H12.4473V10.3333H13.3157V9.47221ZM12.4473 7.74999H13.3157V8.6111H12.4473V7.74999ZM13.3157 6.02777H12.4473V6.88888H13.3157V6.02777ZM18.5263 16.3611H19.3947V17.2222H18.5263V16.3611ZM19.3947 18.0833H18.5263V18.9444H19.3947V18.0833ZM18.5263 19.8055H19.3947V20.6667H18.5263V19.8055ZM19.3947 21.5278H18.5263V22.3889H19.3947V21.5278ZM18.5263 23.25H19.3947V24.1111H18.5263V23.25ZM19.3947 24.9722H18.5263V25.8333H19.3947V24.9722ZM18.5263 26.6944H19.3947V27.5555H18.5263V26.6944ZM19.3947 14.6389H18.5263V15.5H19.3947V14.6389ZM18.5263 12.9167H19.3947V13.7778H18.5263V12.9167ZM19.3947 11.1944H18.5263V12.0555H19.3947V11.1944ZM18.5263 9.47221H19.3947V10.3333H18.5263V9.47221ZM19.3947 7.74999H18.5263V8.6111H19.3947V7.74999ZM18.5263 6.02777H19.3947V6.88888H18.5263V6.02777Z" fill="#FF6B00"/>
</svg>
