<svg width="40" height="40" viewBox="0 0 40 40" fill="none" xmlns="http://www.w3.org/2000/svg">
<g id="icon-smile-square-40">
<g id="Group">
<path id="Vector" d="M15 26.6667C16.4167 27.7167 18.1417 28.3334 20 28.3334C21.8583 28.3334 23.5833 27.7167 25 26.6667" stroke="white" stroke-width="1.5" stroke-linecap="round"/>
<path id="Vector_2" d="M24.9999 20C25.9204 20 26.6666 18.8807 26.6666 17.5C26.6666 16.1193 25.9204 15 24.9999 15C24.0794 15 23.3333 16.1193 23.3333 17.5C23.3333 18.8807 24.0794 20 24.9999 20Z" fill="white"/>
<path id="Vector_3" d="M14.9999 20C15.9204 20 16.6666 18.8807 16.6666 17.5C16.6666 16.1193 15.9204 15 14.9999 15C14.0794 15 13.3333 16.1193 13.3333 17.5C13.3333 18.8807 14.0794 20 14.9999 20Z" fill="white"/>
<path id="Vector_4" d="M3.33325 20C3.33325 12.1434 3.33325 8.21504 5.77325 5.77337C8.21659 3.33337 12.1433 3.33337 19.9999 3.33337C27.8566 3.33337 31.7849 3.33337 34.2249 5.77337C36.6666 8.21671 36.6666 12.1434 36.6666 20C36.6666 27.8567 36.6666 31.785 34.2249 34.225C31.7866 36.6667 27.8566 36.6667 19.9999 36.6667C12.1433 36.6667 8.21492 36.6667 5.77325 34.225C3.33325 31.7867 3.33325 27.8567 3.33325 20Z" stroke="white" stroke-width="1.5"/>
</g>
</g>
</svg>
