<svg width="20" height="20" viewBox="0 0 20 20" fill="none" xmlns="http://www.w3.org/2000/svg">
<g id="icon-&#236;&#139;&#156;&#234;&#176;&#132;&#236;&#139;&#156;&#235;&#140;&#128;&#236;&#160;&#129;&#235;&#176;&#176;&#234;&#178;&#189;">
<path id="Vector" d="M16.3447 2.67594C16.6375 2.67594 16.875 2.41875 16.875 2.10281V1.19781C16.875 0.88125 16.6375 0.625 16.3447 0.625H3.65531C3.36219 0.625 3.125 0.88125 3.125 1.19781V2.10281C3.125 2.41875 3.36219 2.67563 3.65531 2.67563H3.98438V17.3241H3.65531C3.36219 17.3241 3.125 17.5803 3.125 17.8969V18.8016C3.125 19.1181 3.36219 19.375 3.65531 19.375H16.3444C16.6375 19.375 16.875 19.1181 16.875 18.8016V17.8969C16.875 17.5803 16.6375 17.3241 16.3447 17.3241H16.0156V2.67594H16.3447ZM4.55719 17.3244V2.67594H5.09594C4.95687 2.67594 4.84375 2.78063 4.84375 2.91V3.61313C4.84375 3.7425 4.95563 3.84656 5.09438 3.8475C5.09438 6.43781 5.50937 8.95531 8.51062 9.82281L8.65875 9.86969C8.78844 9.91094 8.94375 9.95969 9.02313 10C8.94375 10.0397 8.79031 10.0884 8.66125 10.1291L8.51969 10.1744C5.50969 11.045 5.09469 13.5622 5.09469 16.1525C4.95625 16.1534 4.84406 16.2578 4.84406 16.3866V17.0897C4.84406 17.2191 4.95688 17.3244 5.09625 17.3244H4.55719ZM11.1706 10.6891L11.325 10.7378C13.4519 11.3528 14.2822 12.7519 14.3303 15.8594H10.255C10.2141 14.4144 10.1116 10.7241 10.1116 10C10.1116 9.75469 10.5653 9.41063 10.7741 9.28781C11.655 8.7675 12.7881 7.73812 12.7881 6.66687H7.21125C7.21125 7.73812 8.34437 8.7675 9.22531 9.28781C9.43344 9.41094 9.88781 9.75469 9.88781 10C9.88781 10.7431 9.78563 14.4181 9.74469 15.8594H5.66969C5.7175 12.7528 6.54875 11.3531 8.68375 10.7353L8.83031 10.6894C9.24062 10.56 9.62812 10.4375 9.62812 10.0003C9.62812 9.5625 9.23937 9.43969 8.82719 9.31031L8.67469 9.26188C6.54813 8.64688 5.71781 7.24813 5.67 4.14094H14.3309C14.2828 7.24813 13.4519 8.64781 11.3175 9.26469L11.1747 9.31C10.7622 9.43937 10.3725 9.56219 10.3725 10.0003C10.3719 10.4372 10.76 10.5597 11.1706 10.6891ZM15.4425 17.3244H14.9044C15.0431 17.3244 15.1562 17.2191 15.1562 17.0897V16.3866C15.1562 16.2575 15.0437 16.1534 14.9053 16.1528C14.9053 13.5622 14.4903 11.0444 11.4891 10.1769L11.3391 10.1294C11.2103 10.0888 11.0562 10.04 10.9769 10.0003C11.0566 9.96 11.2122 9.91125 11.3422 9.87L11.4806 9.82594C14.4903 8.95594 14.9053 6.43844 14.9053 3.84781C15.0434 3.84719 15.1562 3.74281 15.1562 3.61313V2.91C15.1562 2.78063 15.0434 2.67594 14.9044 2.67594H15.4425V17.3244Z" fill="#1C1C1C"/>
</g>
</svg>
