<svg width="40" height="40" viewBox="0 0 40 40" fill="none" xmlns="http://www.w3.org/2000/svg">
<g id="icon-plus-40">
<path id="Ellipse 351 (Stroke)" fill-rule="evenodd" clip-rule="evenodd" d="M19.9999 4.58337C11.4855 4.58337 4.58325 11.4857 4.58325 20C4.58325 28.5144 11.4855 35.4167 19.9999 35.4167C28.5143 35.4167 35.4166 28.5144 35.4166 20C35.4166 11.4857 28.5143 4.58337 19.9999 4.58337ZM2.08325 20C2.08325 10.1049 10.1048 2.08337 19.9999 2.08337C29.895 2.08337 37.9166 10.1049 37.9166 20C37.9166 29.8951 29.895 37.9167 19.9999 37.9167C10.1048 37.9167 2.08325 29.8951 2.08325 20Z" fill="#FFC092"/>
<path id="Vector 13 (Stroke)" fill-rule="evenodd" clip-rule="evenodd" d="M20 8.75C20.6904 8.75 21.25 9.30964 21.25 10V30C21.25 30.6904 20.6904 31.25 20 31.25C19.3096 31.25 18.75 30.6904 18.75 30V10C18.75 9.30964 19.3096 8.75 20 8.75Z" fill="#FFC092"/>
<path id="Vector 14 (Stroke)" fill-rule="evenodd" clip-rule="evenodd" d="M31.25 20C31.25 20.6904 30.6904 21.25 30 21.25L10 21.25C9.30964 21.25 8.75 20.6904 8.75 20C8.75 19.3096 9.30964 18.75 10 18.75L30 18.75C30.6904 18.75 31.25 19.3096 31.25 20Z" fill="#FFC092"/>
</g>
</svg>
