<svg width="20" height="20" viewBox="0 0 20 20" fill="none" xmlns="http://www.w3.org/2000/svg">
<g id="icon-check-square-20">
<path id="Rectangle 1515" d="M1.66675 4.16663C1.66675 2.78591 2.78604 1.66663 4.16675 1.66663H15.8334C17.2141 1.66663 18.3334 2.78591 18.3334 4.16663V15.8333C18.3334 17.214 17.2141 18.3333 15.8334 18.3333H4.16675C2.78604 18.3333 1.66675 17.214 1.66675 15.8333V4.16663Z" fill="#FF6B00"/>
<path id="Vector 15 (Stroke)" fill-rule="evenodd" clip-rule="evenodd" d="M14.1919 7.05806C14.436 7.30214 14.436 7.69786 14.1919 7.94194L9.19194 12.9419C8.94786 13.186 8.55214 13.186 8.30806 12.9419L5.80806 10.4419C5.56398 10.1979 5.56398 9.80214 5.80806 9.55806C6.05214 9.31398 6.44786 9.31398 6.69194 9.55806L8.75 11.6161L13.3081 7.05806C13.5521 6.81398 13.9479 6.81398 14.1919 7.05806Z" fill="white"/>
</g>
</svg>
