<svg width="26" height="26" viewBox="0 0 26 26" fill="none" xmlns="http://www.w3.org/2000/svg">
<g id="icon-home-26">
<path id="Subtract (Stroke)" fill-rule="evenodd" clip-rule="evenodd" d="M14.0563 4.72861C13.435 4.25524 12.565 4.25524 11.9437 4.72861L5.06131 9.972C4.6422 10.2913 4.39706 10.7823 4.39706 11.3024V20.6901C4.39706 21.2072 4.82502 21.6264 5.35294 21.6264H9.36765V15.6964C9.36765 14.5587 10.3092 13.6365 11.4706 13.6365H14.5294C15.6908 13.6365 16.6324 14.5587 16.6324 15.6964V21.6264H20.6471C21.175 21.6264 21.6029 21.2072 21.6029 20.6901V11.3024C21.6029 10.7823 21.3578 10.2913 20.9387 9.972L14.0563 4.72861ZM14.7606 3.8417L14.4134 4.27893L14.7606 3.8417L21.6429 9.0851C22.3414 9.61727 22.75 10.4355 22.75 11.3024V20.6901C22.75 21.8277 21.8085 22.75 20.6471 22.75H16.0588C15.7421 22.75 15.4853 22.4985 15.4853 22.1882V15.6964C15.4853 15.1793 15.0573 14.7601 14.5294 14.7601H11.4706C10.9427 14.7601 10.5147 15.1793 10.5147 15.6964V22.1882C10.5147 22.4985 10.2579 22.75 9.94118 22.75H5.35294C4.19152 22.75 3.25 21.8277 3.25 20.6901V11.3024C3.25 10.4355 3.65856 9.61727 4.35708 9.0851L11.2394 3.8417C12.275 3.05277 13.725 3.05277 14.7606 3.8417Z" fill="#1C1C1C"/>
</g>
</svg>
