<svg width="32" height="32" viewBox="0 0 32 32" fill="none" xmlns="http://www.w3.org/2000/svg">
<g id="icon-plus-32">
<path id="Ellipse 351 (Stroke)" fill-rule="evenodd" clip-rule="evenodd" d="M16.0001 3.66663C9.18857 3.66663 3.66675 9.18845 3.66675 16C3.66675 22.8115 9.18857 28.3333 16.0001 28.3333C22.8116 28.3333 28.3334 22.8115 28.3334 16C28.3334 9.18845 22.8116 3.66663 16.0001 3.66663ZM1.66675 16C1.66675 8.08388 8.084 1.66663 16.0001 1.66663C23.9162 1.66663 30.3334 8.08388 30.3334 16C30.3334 23.916 23.9162 30.3333 16.0001 30.3333C8.084 30.3333 1.66675 23.916 1.66675 16Z" fill="#FF6B00"/>
<path id="Vector 13 (Stroke)" fill-rule="evenodd" clip-rule="evenodd" d="M16 7C16.5523 7 17 7.44772 17 8V24C17 24.5523 16.5523 25 16 25C15.4477 25 15 24.5523 15 24L15 8C15 7.44772 15.4477 7 16 7Z" fill="#FF6B00"/>
<path id="Vector 14 (Stroke)" fill-rule="evenodd" clip-rule="evenodd" d="M25 16C25 16.5523 24.5523 17 24 17L8 17C7.44771 17 7 16.5523 7 16C7 15.4477 7.44771 15 8 15L24 15C24.5523 15 25 15.4477 25 16Z" fill="#FF6B00"/>
</g>
</svg>
