<svg width="24" height="24" viewBox="0 0 24 24" fill="none" xmlns="http://www.w3.org/2000/svg">
<g id="icon-check-square-24">
<path id="Rectangle 1515" d="M2.5 5.5C2.5 3.84315 3.84315 2.5 5.5 2.5H18.5C20.1569 2.5 21.5 3.84315 21.5 5.5V18.5C21.5 20.1569 20.1569 21.5 18.5 21.5H5.5C3.84315 21.5 2.5 20.1569 2.5 18.5V5.5Z" fill="#110000" fill-opacity="0.16"/>
<path id="Rectangle 1515 (Stroke)" fill-rule="evenodd" clip-rule="evenodd" d="M1.75 5.5C1.75 3.42893 3.42893 1.75 5.5 1.75H18.5C20.5711 1.75 22.25 3.42893 22.25 5.5V18.5C22.25 20.5711 20.5711 22.25 18.5 22.25H5.5C3.42893 22.25 1.75 20.5711 1.75 18.5V5.5ZM5.5 3.25C4.25736 3.25 3.25 4.25736 3.25 5.5V18.5C3.25 19.7426 4.25736 20.75 5.5 20.75H18.5C19.7426 20.75 20.75 19.7426 20.75 18.5V5.5C20.75 4.25736 19.7426 3.25 18.5 3.25H5.5Z" fill="white"/>
</g>
</svg>
