<svg width="20" height="20" viewBox="0 0 20 20" fill="none" xmlns="http://www.w3.org/2000/svg">
<g id="icon-&#236;&#152;&#129;&#237;&#153;&#148;&#234;&#176;&#144;&#236;&#160;&#149;">
<g id="Group">
<path id="Vector" d="M2.74902 12.153C4.1125 14.1976 6.42053 16.4546 9.9998 18.8204C13.5791 16.4546 15.8871 14.1976 17.2506 12.153H14.4447C14.3338 12.153 14.2253 12.1197 14.1334 12.0575C14.0416 11.9953 13.9704 11.9071 13.9291 11.8041L12.31 7.75696L10.5343 13.9721C10.5025 14.0835 10.4367 14.1823 10.3461 14.2545C10.2554 14.3267 10.1445 14.3687 10.0287 14.3747C9.91297 14.3807 9.79825 14.3504 9.70061 14.2879C9.60297 14.2255 9.52729 14.1341 9.48419 14.0265L7.65399 9.45047L6.01715 11.9063C5.96633 11.9823 5.89756 12.0445 5.81692 12.0876C5.73628 12.1306 5.64628 12.1531 5.55488 12.153H2.74902Z" fill="#1C1C1C"/>
<path id="Vector_2" d="M2.08776 11.0418C-1.58708 4.01881 6.0104 -0.0705111 9.80302 3.42208C9.8697 3.4832 9.93526 3.54654 9.9986 3.6121C10.0613 3.5466 10.1265 3.48358 10.1942 3.4232C13.989 -0.0705112 21.5854 4.01881 17.9117 11.0418H14.8191L12.7367 5.83456C12.6936 5.72698 12.6179 5.63557 12.5203 5.57313C12.4226 5.51069 12.3079 5.48035 12.1921 5.48635C12.0764 5.49235 11.9654 5.5344 11.8748 5.6066C11.7841 5.6788 11.7183 5.77755 11.6866 5.88901L9.91192 12.1041L8.29286 8.05702C8.25515 7.96314 8.19253 7.88133 8.11174 7.82043C8.03095 7.75953 7.93507 7.72184 7.83443 7.71143C7.73379 7.70103 7.63223 7.7183 7.54068 7.76138C7.44914 7.80446 7.3711 7.87172 7.31498 7.9559L5.25698 11.0418H2.08776Z" fill="#1C1C1C"/>
</g>
</g>
</svg>
