<svg width="20" height="20" viewBox="0 0 20 20" fill="none" xmlns="http://www.w3.org/2000/svg">
<g id="icon-check-square-20">
<path id="Rectangle 1515 (Stroke)" fill-rule="evenodd" clip-rule="evenodd" d="M1.4585 4.58337C1.4585 2.85748 2.85761 1.45837 4.5835 1.45837H15.4168C17.1427 1.45837 18.5418 2.85748 18.5418 4.58337V15.4167C18.5418 17.1426 17.1427 18.5417 15.4168 18.5417H4.5835C2.85761 18.5417 1.4585 17.1426 1.4585 15.4167V4.58337ZM4.5835 2.70837C3.54796 2.70837 2.7085 3.54784 2.7085 4.58337V15.4167C2.7085 16.4522 3.54796 17.2917 4.5835 17.2917H15.4168C16.4524 17.2917 17.2918 16.4522 17.2918 15.4167V4.58337C17.2918 3.54784 16.4524 2.70837 15.4168 2.70837H4.5835Z" fill="#B9B9B9"/>
<path id="Vector 15 (Stroke)" fill-rule="evenodd" clip-rule="evenodd" d="M14.1919 7.05806C14.436 7.30214 14.436 7.69786 14.1919 7.94194L9.19194 12.9419C8.94786 13.186 8.55214 13.186 8.30806 12.9419L5.80806 10.4419C5.56398 10.1979 5.56398 9.80214 5.80806 9.55806C6.05214 9.31398 6.44786 9.31398 6.69194 9.55806L8.75 11.6161L13.3081 7.05806C13.5521 6.81398 13.9479 6.81398 14.1919 7.05806Z" fill="#B9B9B9"/>
</g>
</svg>
