<svg width="28" height="28" viewBox="0 0 28 28" fill="none" xmlns="http://www.w3.org/2000/svg">
<g id="icon-share-28">
<path id="Ellipse 1 (Stroke)" fill-rule="evenodd" clip-rule="evenodd" d="M19.25 4.15625C18.0016 4.15625 16.9896 5.16827 16.9896 6.41667C16.9896 6.87219 17.1236 7.29441 17.3542 7.64842C17.7586 8.26908 18.4568 8.67708 19.25 8.67708C20.4984 8.67708 21.5104 7.66506 21.5104 6.41667C21.5104 5.16827 20.4984 4.15625 19.25 4.15625ZM15.6771 6.41667C15.6771 4.4434 17.2767 2.84375 19.25 2.84375C21.2232 2.84375 22.8229 4.4434 22.8229 6.41667C22.8229 8.38993 21.2232 9.98958 19.25 9.98958C18.2318 9.98958 17.3134 9.56333 16.6632 8.88118L10.4205 12.9398L9.70508 11.8394L15.9471 7.78124C15.7731 7.36042 15.6771 6.89931 15.6771 6.41667ZM16.5104 20.5682L9.70578 16.1566L10.4198 15.0553L17.2244 19.4669L16.5104 20.5682Z" fill="#1C1C1C"/>
<path id="Ellipse 3 (Stroke)" fill-rule="evenodd" clip-rule="evenodd" d="M7.58341 11.7395C6.33502 11.7395 5.323 12.7515 5.323 13.9999C5.323 15.2483 6.33502 16.2603 7.58341 16.2603C8.83181 16.2603 9.84383 15.2483 9.84383 13.9999C9.84383 12.7515 8.83181 11.7395 7.58341 11.7395ZM4.0105 13.9999C4.0105 12.0267 5.61015 10.427 7.58341 10.427C9.55668 10.427 11.1563 12.0267 11.1563 13.9999C11.1563 15.9732 9.55668 17.5728 7.58341 17.5728C5.61015 17.5728 4.0105 15.9732 4.0105 13.9999Z" fill="#1C1C1C"/>
<path id="Ellipse 2 (Stroke)" fill-rule="evenodd" clip-rule="evenodd" d="M19.2499 19.323C18.0015 19.323 16.9895 20.335 16.9895 21.5834C16.9895 22.8318 18.0015 23.8438 19.2499 23.8438C20.4983 23.8438 21.5103 22.8318 21.5103 21.5834C21.5103 20.335 20.4983 19.323 19.2499 19.323ZM15.677 21.5834C15.677 19.6101 17.2767 18.0105 19.2499 18.0105C21.2232 18.0105 22.8228 19.6101 22.8228 21.5834C22.8228 23.5567 21.2232 25.1563 19.2499 25.1563C17.2767 25.1563 15.677 23.5567 15.677 21.5834Z" fill="#1C1C1C"/>
</g>
</svg>
